<?xml version="1.0" encoding="utf-8"?>
<!-- Generator: Adobe Illustrator 22.1.0, SVG Export Plug-In . SVG Version: 6.00 Build 0)  -->
<svg version="1.1" id="Capa_1" xmlns="http://www.w3.org/2000/svg" xmlns:xlink="http://www.w3.org/1999/xlink" x="0px" y="0px"
	 viewBox="0 0 26 23" style="enable-background:new 0 0 26 23;" xml:space="preserve">
<title>casita</title>
<desc>Created with Sketch.</desc>
<g id="Dia-de-la-Energía-2">
	<g id="Dia-de-la-Energía" transform="translate(-229.000000, -170.000000)">
		<g id="casita" transform="translate(228.000000, 170.000000)">
			<path id="Forma_1" d="M4.5,22.3c0,0.2,0,0.3,0.1,0.4s0.2,0.2,0.4,0.2l6.6,0l0-5.3c0-0.2,0-0.4,0.2-0.6c0.1-0.2,0.4-0.3,0.6-0.3
				h2.7c0.2,0,0.5,0,0.7,0.2c0.2,0.2,0.3,0.4,0.3,0.7l0,5.3h6.4c0.2,0,0.4-0.1,0.5-0.2s0.2-0.3,0.2-0.5v-9.8l-9.1-8l-9.6,8V22.3
				L4.5,22.3z M1,11.5c0,0,0.8,1.5,2.6,0l10.6-8.9l10,8.8c2.1,1.5,2.8,0,2.8,0L14.2,0L1,11.5z M24,2.6h-2.6l0,3.1L24,7.8V2.6z"/>
		</g>
	</g>
</g>
</svg>
