<?xml version="1.0" encoding="utf-8"?>
<!-- Generator: Adobe Illustrator 22.1.0, SVG Export Plug-In . SVG Version: 6.00 Build 0)  -->
<svg version="1.1" id="Capa_1" xmlns="http://www.w3.org/2000/svg" xmlns:xlink="http://www.w3.org/1999/xlink" x="0px" y="0px"
	 viewBox="0 0 39 39" style="enable-background:new 0 0 39 39;" xml:space="preserve">
<title>face</title>
<desc>Created with Sketch.</desc>
<g id="Dia-de-la-Energía-2">
	<g id="Dia-de-la-Energía" transform="translate(-899.000000, -3655.000000)">
		<g id="face" transform="translate(899.000000, 3655.000000)">
			<path id="Forma_1" d="M19.5,0C8.7,0,0,8.7,0,19.5S8.7,39,19.5,39S39,30.3,39,19.5C39,8.7,30.3,0,19.5,0z M24.3,20.2h-3.2v11.3
				h-4.7V20.2h-2.2v-4h2.2v-2.6c0-1.8,0.9-4.7,4.7-4.7l3.5,0v3.9h-2.5c-0.3,0-0.6,0.1-0.8,0.3c-0.2,0.2-0.3,0.5-0.2,0.8v2.3h3.6
				L24.3,20.2z"/>
		</g>
	</g>
</g>
</svg>
