<?xml version="1.0" encoding="utf-8"?>
<!-- Generator: Adobe Illustrator 22.1.0, SVG Export Plug-In . SVG Version: 6.00 Build 0)  -->
<svg version="1.1" id="Capa_1" xmlns="http://www.w3.org/2000/svg" xmlns:xlink="http://www.w3.org/1999/xlink" x="0px" y="0px"
	 viewBox="0 0 29 25" style="enable-background:new 0 0 29 25;" xml:space="preserve">
<title>photo</title>
<desc>Created with Sketch.</desc>
<g id="Dia-de-la-Energía-2">
	<g id="Dia-de-la-Energía" transform="translate(-934.000000, -168.000000)">
		<g id="photo" transform="translate(934.000000, 168.000000)">
			<path id="Shape" d="M27.2,4H5.8C4.8,4,4,4.8,4,5.8v17.5c0,1,0.8,1.8,1.8,1.8h21.4c1,0,1.8-0.8,1.8-1.8V5.8C29,4.8,28.2,4,27.2,4z
				 M27.8,23.2c0,0.3-0.3,0.6-0.6,0.6H5.8c-0.3,0-0.6-0.3-0.6-0.6V5.8c0-0.3,0.3-0.6,0.6-0.6h21.4c0.3,0,0.6,0.3,0.6,0.6V23.2z"/>
			<path id="Shape_1_" d="M25.2,0H1.8C0.8,0,0,0.8,0,1.8v19.4c0,1,0.8,1.8,1.8,1.8h0.6v-1.2H1.8c-0.3,0-0.6-0.3-0.6-0.6V1.8
				c0-0.3,0.3-0.6,0.6-0.6h23.3c0.3,0,0.6,0.3,0.6,0.6v0.6H27V1.8C27,0.8,26.2,0,25.2,0z"/>
			<path id="Shape_2_" d="M14.1,12.2c-0.2-0.2-0.6-0.2-0.9,0L4,21.5l0.9,0.9l8.8-8.9l9.4,9.5l0.9-0.9L14.1,12.2z"/>
			<path id="Shape_3_" d="M22.1,12.2c-0.2-0.2-0.6-0.2-0.9,0L18,15.3l0.9,0.9l2.7-2.7l6.5,6.5l0.9-0.9L22.1,12.2z"/>
			<path id="Shape_4_" d="M17,6c-1.7,0-3,1.3-3,3s1.3,3,3,3c1.7,0,3-1.3,3-3C20,7.3,18.7,6,17,6z M17,10.8c-1,0-1.8-0.8-1.8-1.8
				S16,7.2,17,7.2S18.8,8,18.8,9S18,10.8,17,10.8z"/>
		</g>
	</g>
</g>
</svg>
