<?xml version="1.0" encoding="utf-8"?>
<!-- Generator: Adobe Illustrator 22.1.0, SVG Export Plug-In . SVG Version: 6.00 Build 0)  -->
<svg version="1.1" id="Capa_1" xmlns="http://www.w3.org/2000/svg" xmlns:xlink="http://www.w3.org/1999/xlink" x="0px" y="0px"
	 viewBox="0 0 26 26" style="enable-background:new 0 0 26 26;" xml:space="preserve">
<title>play-button</title>
<desc>Created with Sketch.</desc>
<g id="Dia-de-la-Energía-2">
	<g id="Dia-de-la-Energía" transform="translate(-287.000000, -1128.000000)">
		<g id="play-button" transform="translate(287.000000, 1128.000000)">
			<path id="Shape" d="M13,0C5.8,0,0,5.8,0,13s5.8,13,13,13s13-5.8,13-13S20.2,0,13,0z M17.5,13.7L11,17.8c-0.1,0.1-0.3,0.1-0.4,0.1
				c-0.1,0-0.3,0-0.4-0.1c-0.3-0.1-0.4-0.4-0.4-0.7V8.9c0-0.3,0.2-0.6,0.4-0.7c0.3-0.1,0.6-0.1,0.8,0l6.5,4.1
				c0.2,0.1,0.4,0.4,0.4,0.7S17.7,13.5,17.5,13.7z"/>
		</g>
	</g>
</g>
</svg>
