<?xml version="1.0" encoding="utf-8"?>
<!-- Generator: Adobe Illustrator 22.1.0, SVG Export Plug-In . SVG Version: 6.00 Build 0)  -->
<svg version="1.1" id="Capa_1" xmlns="http://www.w3.org/2000/svg" xmlns:xlink="http://www.w3.org/1999/xlink" x="0px" y="0px"
	 viewBox="0 0 24 26" style="enable-background:new 0 0 24 26;" xml:space="preserve">
<title>projection-screen copy</title>
<desc>Created with Sketch.</desc>
<g id="Dia-de-la-Energía-2">
	<g id="Dia-de-la-Energía" transform="translate(-381.000000, -170.000000)">
		<g id="projection-screen-copy" transform="translate(381.000000, 170.000000)">
			<path id="Shape" d="M24,1.2C24,0.5,23.5,0,22.8,0H2.2C1.5,0,1,0.5,1,1.2c0,0.4,0.2,0.8,0.6,1v13.6c0.3-0.3,0.7-0.6,1.2-1.1V2.4
				h19.5v13H7c-0.4,0.4-0.8,0.8-1.1,1.2h1l-2.1,8c-0.2,0.6,0.2,1.3,0.8,1.4c0.6,0.2,1.3-0.2,1.4-0.8l2.1-8h6.4l2.1,8
				C18,25.7,18.5,26,19,26c0.1,0,0.2,0,0.3,0c0.6-0.2,1-0.8,0.8-1.4l-2.1-8h4.8c0.3,0,0.6-0.3,0.6-0.6V2.2C23.8,2,24,1.6,24,1.2z"/>
			<path id="Shape_1_" d="M13,13.8V9.2C13,8.5,12.6,8,12,8s-1,0.5-1,1.2v4.6c0,0.7,0.4,1.2,1,1.2C12.6,15,13,14.5,13,13.8z"/>
			<path id="Shape_2_" d="M17,12.8V4.2C17,3.5,16.6,3,16,3s-1,0.5-1,1.2v8.6c0,0.7,0.4,1.2,1,1.2C16.6,14,17,13.5,17,12.8z"/>
			<path id="Shape_3_" d="M20,13.8V7.2C20,6.6,19.6,6,19,6c-0.6,0-1,0.6-1,1.2v6.5c0,0.7,0.4,1.2,1,1.2C19.6,15,20,14.4,20,13.8z"/>
			<path id="Shape_4_" d="M8.9,11.1c-0.1-0.1-0.3-0.1-0.4,0c0,0-8.2,7.5-8.3,7.5c-0.3,0.3-0.3,0.8,0,1.1c0.3,0.3,0.8,0.3,1.1,0
				c0,0,7.5-8.3,7.5-8.3C9,11.4,9,11.2,8.9,11.1z"/>
		</g>
	</g>
</g>
</svg>
