<?xml version="1.0" encoding="utf-8"?>
<!-- Generator: Adobe Illustrator 22.1.0, SVG Export Plug-In . SVG Version: 6.00 Build 0)  -->
<svg version="1.1" id="Capa_1" xmlns="http://www.w3.org/2000/svg" xmlns:xlink="http://www.w3.org/1999/xlink" x="0px" y="0px"
	 viewBox="0 0 39 39" style="enable-background:new 0 0 39 39;" xml:space="preserve">
<title>twitter-logo-button</title>
<desc>Created with Sketch.</desc>
<g id="Dia-de-la-Energía-2">
	<g id="Dia-de-la-Energía" transform="translate(-945.000000, -3655.000000)">
		<g id="twitter-logo-button" transform="translate(945.000000, 3655.000000)">
			<path id="Shape" d="M19.5,0C8.7,0,0,8.7,0,19.5C0,30.3,8.7,39,19.5,39C30.3,39,39,30.3,39,19.5C39,8.7,30.3,0,19.5,0z M28.2,15
				c0,0.2,0,0.4,0,0.6c0,5.9-4.5,12.8-12.8,12.8c-2.5,0-4.9-0.7-6.9-2c0.4,0,0.7,0.1,1.1,0.1c2.1,0,4-0.7,5.6-1.9
				c-2,0-3.6-1.3-4.2-3.1c0.3,0.1,0.6,0.1,0.8,0.1c0.4,0,0.8-0.1,1.2-0.2c-2.1-0.4-3.6-2.2-3.6-4.4c0,0,0,0,0-0.1
				c0.6,0.3,1.3,0.5,2,0.6c-1.2-0.8-2-2.2-2-3.7c0-0.8,0.2-1.6,0.6-2.3c2.2,2.7,5.5,4.5,9.3,4.7c-0.1-0.3-0.1-0.7-0.1-1
				c0-2.5,2-4.5,4.5-4.5c1.3,0,2.5,0.5,3.3,1.4c1-0.2,2-0.6,2.9-1.1c-0.3,1-1,1.9-2,2.5c0.9-0.1,1.8-0.3,2.6-0.7
				C29.8,13.6,29.1,14.4,28.2,15z"/>
		</g>
	</g>
</g>
</svg>
