<?xml version="1.0" encoding="utf-8"?>
<!-- Generator: Adobe Illustrator 22.1.0, SVG Export Plug-In . SVG Version: 6.00 Build 0)  -->
<svg version="1.1" id="Capa_1" xmlns="http://www.w3.org/2000/svg" xmlns:xlink="http://www.w3.org/1999/xlink" x="0px" y="0px"
	 viewBox="0 0 29 29" style="enable-background:new 0 0 29 29;" xml:space="preserve">
<title>video-conference</title>
<desc>Created with Sketch.</desc>
<g id="Dia-de-la-Energía-2">
	<g id="Dia-de-la-Energía" transform="translate(-678.000000, -164.000000)">
		<g id="video-conference" transform="translate(678.000000, 164.000000)">
			<path id="Shape" d="M12.9,20.1c-0.1-0.1-0.2-0.1-0.4-0.1s-0.3,0.1-0.4,0.1c-0.1,0.1-0.1,0.2-0.1,0.4c0,0.1,0.1,0.3,0.1,0.4
				c0.1,0.1,0.2,0.1,0.4,0.1s0.3-0.1,0.4-0.1c0.1-0.1,0.1-0.2,0.1-0.4S12.9,20.2,12.9,20.1z"/>
			<path id="Shape_1_" d="M25.4,15.1c-0.3,0-0.6,0.3-0.6,0.6v2.5h-9.8v-1.4c0-2.2-1.6-3.9-3.7-4.2c0.4-0.5,0.7-1.2,0.7-1.9v-4
				c0-0.3-0.3-0.6-0.6-0.6h-3c-1.3,0-2.4,1.1-2.4,2.4v2.2c0,0.7,0.2,1.4,0.7,1.9c-2.1,0.3-3.7,2-3.7,4.2v1.4H1.1V4.6
				c0-0.2,0.2-0.4,0.4-0.4h11.8c0.3,0,0.6-0.3,0.6-0.6S13.7,3,13.4,3H1.6C0.7,3,0,3.7,0,4.6v16.8C0,22.3,0.7,23,1.6,23h8.6v2.6
				c-1.4,0.1-2.6,1.4-2.6,2.8c0,0.3,0.3,0.6,0.6,0.6h9.5c0.3,0,0.6-0.3,0.6-0.6c0-1.5-1.1-2.7-2.6-2.8V23h8.6c0.9,0,1.6-0.7,1.6-1.6
				v-5.7C26,15.4,25.7,15.1,25.4,15.1z M7.3,8.6c0-0.7,0.6-1.3,1.3-1.3h2.4v0.9c0,0.5-0.4,0.8-0.8,0.8H7.3V8.6z M7.3,10.2h2.8
				c0.3,0,0.6-0.1,0.8-0.2v0.7h0c0,1-0.8,1.8-1.8,1.8s-1.8-0.8-1.8-1.8V10.2z M9.7,13.7l-0.7,0.7l-0.7-0.7H9.7z M4.2,16.8
				c0-1.6,1.2-2.8,2.6-3.1l1.8,1.8c0.1,0.1,0.3,0.2,0.4,0.2c0.1,0,0.3-0.1,0.4-0.2l1.8-1.8c1.5,0.2,2.6,1.5,2.6,3.1v1.4H4.2V16.8z
				 M17.1,27.9H8.9c0.2-0.7,0.9-1.1,1.6-1.1h0.3h4.4h0.3C16.2,26.7,16.9,27.2,17.1,27.9z M11.4,25.6V23h3.3v2.6H11.4z M24.9,21.4
				c0,0.2-0.2,0.4-0.4,0.4H1.6c-0.2,0-0.4-0.2-0.4-0.4v-2.1h23.7V21.4z"/>
			<path id="Shape_2_" d="M25.9,13.1c-0.1-0.1-0.2-0.1-0.4-0.1s-0.3,0.1-0.4,0.1c-0.1,0.1-0.1,0.2-0.1,0.4c0,0.1,0.1,0.3,0.1,0.4
				c0.1,0.1,0.2,0.1,0.4,0.1s0.3-0.1,0.4-0.1c0.1-0.1,0.1-0.2,0.1-0.4C26,13.4,25.9,13.2,25.9,13.1z"/>
			<path id="Shape_3_" d="M26.4,2h-4.7C21.3,2,21,2.2,21,2.5S21.3,3,21.6,3h4.7C26.7,3,27,2.8,27,2.5S26.7,2,26.4,2z"/>
			<path id="Shape_4_" d="M19.9,2.1C19.8,2.1,19.6,2,19.5,2s-0.3,0.1-0.4,0.1C19.1,2.2,19,2.4,19,2.5s0.1,0.3,0.1,0.4
				C19.2,2.9,19.4,3,19.5,3s0.3-0.1,0.4-0.1C19.9,2.8,20,2.6,20,2.5S19.9,2.2,19.9,2.1z"/>
			<path id="Shape_5_" d="M26.4,5h-6.8C19.3,5,19,5.2,19,5.5S19.3,6,19.6,6h6.8C26.7,6,27,5.8,27,5.5S26.7,5,26.4,5z"/>
			<path id="Shape_6_" d="M26.4,7h-6.8C19.3,7,19,7.2,19,7.5S19.3,8,19.6,8h6.8C26.7,8,27,7.8,27,7.5S26.7,7,26.4,7z"/>
			<path id="Shape_7_" d="M26.1,0h-8.3C16.3,0,15,1.3,15,2.9v6.2c0,1.5,1.1,2.7,2.5,2.9v1.5c0,0.2,0.1,0.4,0.4,0.5
				c0.1,0,0.1,0,0.2,0c0.1,0,0.3-0.1,0.4-0.2l1.9-1.9h5.7c1.6,0,2.9-1.3,2.9-2.9V2.9C29,1.3,27.7,0,26.1,0z M27.9,9.1
				c0,1-0.8,1.7-1.7,1.7h-6c-0.2,0-0.3,0.1-0.4,0.2L18.7,12v-0.7c0-0.3-0.3-0.6-0.6-0.6h-0.2c-0.9,0-1.7-0.8-1.7-1.7V2.9
				c0-1,0.8-1.7,1.7-1.7h8.3c0.9,0,1.7,0.8,1.7,1.7V9.1z"/>
		</g>
	</g>
</g>
</svg>
