<?xml version="1.0" encoding="utf-8"?>
<!-- Generator: Adobe Illustrator 22.1.0, SVG Export Plug-In . SVG Version: 6.00 Build 0)  -->
<svg version="1.1" id="Capa_1" xmlns="http://www.w3.org/2000/svg" xmlns:xlink="http://www.w3.org/1999/xlink" x="0px" y="0px"
	 viewBox="0 0 39 39" style="enable-background:new 0 0 39 39;" xml:space="preserve">
<title>youtube</title>
<desc>Created with Sketch.</desc>
<g id="Dia-de-la-Energía-2">
	<g id="Dia-de-la-Energía" transform="translate(-853.000000, -3655.000000)">
		<g id="youtube" transform="translate(853.000000, 3655.000000)">
			<path id="Forma_1" d="M10.2,20.9h1.6v8.4h1.5v-8.4h1.6v-1.4h-4.6V20.9z M22.6,22c-0.6,0-1.1,0.3-1.4,0.8v-3.2h-1.3v9.7h1.3v-0.7
				c0.3,0.5,0.8,0.8,1.4,0.8c0.5,0,0.9-0.3,1.1-0.8c0.1-0.5,0.1-1,0.1-1.5v-2.9c0-0.5,0-1-0.1-1.5C23.6,22.3,23.1,21.9,22.6,22z
				 M22.5,27.2c0,0.7-0.2,1-0.6,1c-0.3,0-0.5-0.1-0.7-0.3v-4.4c0.2-0.2,0.4-0.3,0.7-0.3c0.4,0,0.6,0.3,0.6,1V27.2z M17.5,27.6
				c-0.2,0.3-0.5,0.6-0.8,0.6c-0.1,0-0.2,0-0.2-0.1c-0.1-0.1-0.1-0.1-0.1-0.2c0-0.2,0-0.3,0-0.5v-5.3H15v5.7c0,0.4,0,0.7,0.1,1.1
				c0.1,0.4,0.5,0.6,0.9,0.5c0.6-0.1,1.2-0.4,1.5-0.9v0.8h1.3v-7.3h-1.3V27.6z M18.6,15.4c0.4,0,0.6-0.3,0.6-1v-3.1
				c0-0.7-0.2-1-0.6-1c-0.4,0-0.6,0.3-0.6,1v3.1C18,15,18.2,15.4,18.6,15.4z M19.5,0C8.7,0,0,8.7,0,19.5S8.7,39,19.5,39
				S39,30.3,39,19.5S30.3,0,19.5,0z M21.7,9.1H23v5.4c0,0.2,0,0.3,0,0.5c0,0.1,0,0.2,0.1,0.2s0.1,0.1,0.2,0.1
				c0.4-0.1,0.7-0.3,0.8-0.6V9.1h1.3v7.3h-1.3v-0.8c-0.4,0.5-0.9,0.8-1.5,0.9c-0.4,0-0.7-0.2-0.9-0.5c-0.1-0.4-0.1-0.7-0.1-1.1V9.1z
				 M16.7,11.5c0-0.6,0.1-1.2,0.4-1.7C17.4,9.3,18,9,18.6,9s1.2,0.3,1.5,0.7c0.3,0.5,0.5,1.1,0.4,1.7v2.6c0,0.6-0.1,1.2-0.4,1.7
				c-0.4,0.5-0.9,0.7-1.5,0.7s-1.2-0.3-1.5-0.7c-0.3-0.5-0.5-1.1-0.4-1.7V11.5z M13.1,6.6l1,3.9l1-3.9h1.5l-1.8,5.9v4h-1.5v-4
				c-0.2-1.1-0.5-2.1-0.9-3.1c-0.3-0.9-0.6-1.8-0.9-2.7H13.1z M30,29.9c-0.2,1.1-1.2,2-2.4,2.1c-5.4,0.4-10.9,0.4-16.3,0
				c-1.2-0.1-2.1-1-2.4-2.1c-0.5-3.4-0.5-6.9,0-10.3c0.2-1.1,1.2-2,2.3-2.1c5.4-0.4,10.9-0.4,16.3,0c1.2,0.1,2.1,1,2.3,2.1
				c0.3,1.7,0.4,3.4,0.4,5.1C30.4,26.5,30.3,28.2,30,29.9z M26.8,22c-0.6,0-1.2,0.2-1.6,0.7c-0.3,0.5-0.5,1.1-0.4,1.7V27
				c0,0.6,0.1,1.2,0.4,1.7c0.4,0.5,1,0.8,1.6,0.7c0.9,0,1.8-0.6,1.9-1.6c0-0.1,0-0.4,0-0.8v-0.2h-1.3c0,0.3,0,0.6,0,0.9
				c0,0.3-0.3,0.5-0.6,0.5c-0.5,0-0.7-0.3-0.7-1v-1.3h2.6v-1.5c0-0.6-0.1-1.2-0.4-1.7C28,22.2,27.4,21.9,26.8,22z M27.4,24.8h-1.3
				v-0.7c0-0.7,0.2-1,0.7-1s0.7,0.3,0.7,1V24.8z"/>
		</g>
	</g>
</g>
</svg>
